<?xml version="1.0" encoding="UTF-8" standalone="no"?>
<!DOCTYPE svg PUBLIC "-//W3C//DTD SVG 1.1//EN" "http://www.w3.org/Graphics/SVG/1.1/DTD/svg11.dtd">
<svg width="100%" height="100%" viewBox="0 0 2000 2000" version="1.1" xmlns="http://www.w3.org/2000/svg" xmlns:xlink="http://www.w3.org/1999/xlink" xml:space="preserve" xmlns:serif="http://www.serif.com/" style="fill-rule:evenodd;clip-rule:evenodd;stroke-linejoin:round;stroke-miterlimit:2;">
    <g>
        <path d="M899.805,1751.88C892.882,1760.09 877.372,1753.05 873.685,1744.81C869.021,1734.37 875.157,1720.45 887.273,1719.6C892.859,1719.21 896.321,1719.41 900.985,1723.05C910.977,1730.85 906.773,1743.61 899.805,1751.88ZM862.289,1557.09C857.624,1546.66 863.761,1532.73 875.888,1531.88C881.474,1531.49 884.924,1531.69 889.6,1535.33C899.581,1543.13 895.388,1555.89 888.409,1564.16C881.497,1572.38 865.975,1565.33 862.289,1557.09ZM933.692,1670C933.063,1650.11 932.411,1630.21 931.511,1610.31C929.702,1570.08 926.892,1529.84 921.239,1489.94C911.775,1423.14 886.891,1363.7 869.481,1299.21C862.581,1273.65 857.163,1247.7 853.027,1221.55C845.306,1172.79 842.237,1123.76 842.653,1074.51C843.069,1026.24 846.564,977.504 863.513,931.872C872.718,907.067 882.935,875.968 903.098,857.76C906.29,854.883 911.955,851.713 914.585,849.016C914.585,848.993 914.584,848.97 914.584,848.947C915.582,848.184 916.554,847.397 917.477,846.564C918.167,842.1 919.004,837.654 919.67,833.135C919.727,832.796 919.772,832.446 919.818,832.107C909.401,831.268 897.9,838.796 888.738,842.775C866.909,852.271 844.496,860.382 822.741,870.09C812.729,874.557 802.565,879.242 792.787,883.994C783.241,888.637 775.741,896.454 766.151,901.121C755.431,906.342 744.688,911.506 733.788,916.384C725.55,920.075 717.278,923.726 709.066,927.501C714.939,943.335 722.579,958.521 731.791,972.672C731.5,973.693 731.208,974.714 730.889,975.729C722.797,1001.46 707.017,1023.67 696.25,1048.22C693.608,1054.25 691.394,1060.39 689.203,1066.5L689.225,1066.51C694.159,1069.19 694.361,1075.21 696.036,1080.4C709.939,1123.47 687.146,1148.35 680.886,1188.65C675.862,1220.91 687.933,1250.09 686.595,1281.6C685.729,1301.93 674.445,1319.34 669.219,1338.53C666.881,1347.13 665.251,1355.89 664.015,1364.71C652.337,1448.8 633.422,1532.46 616.956,1615.88C613.011,1635.86 609.595,1657.45 604.436,1678.56L604.48,1678.57C609.786,1743.09 610.471,1809.09 609.977,1874.3L933.31,1874.3C934.726,1845.16 935.793,1815.99 935.883,1786.81C936.019,1747.57 934.939,1709.14 933.692,1670Z" style="fill:rgb(79,149,207);fill-rule:nonzero;"/>
        <path d="M691.429,402.175C694.564,404.134 694.728,408.635 692.023,410.822C688.812,413.426 685.133,413.818 681.227,413.287C675.854,412.554 670.253,412.2 664.868,411.935C658.509,411.618 652.125,411.581 645.753,411.366C641.126,411.201 632.973,412.074 629.256,408.686C624.541,404.375 628.573,400.165 633.542,399.128C638.067,398.206 642.783,399.153 647.271,399.343C650.545,399.47 653.882,399.634 657.194,399.748C664.261,399.988 671.341,399.874 678.408,399.938C682.744,399.975 687.611,399.76 691.429,402.175Z" style="fill:rgb(255,188,59);fill-rule:nonzero;"/>
        <path d="M647.22,299.637C653.237,300.016 652.795,306.627 649.129,309.611C648.623,311.621 645.463,312.177 643.845,313.391C641.417,315.199 628.168,325.464 626.108,327.664C624.262,329.636 622.05,330.622 619.85,332.202C616.968,334.263 607.398,341.557 604.326,335.894C603.416,334.212 604.048,332.013 604.945,330.508C606.93,327.196 610.66,324.807 613.997,323.037C617.12,321.393 620.634,319.13 622.846,316.362C624.958,313.732 638.421,304.39 640.987,302.317C642.745,300.901 644.843,299.472 647.22,299.637Z" style="fill:rgb(255,188,59);fill-rule:nonzero;"/>
        <path d="M647.208,511.313C648.042,514.916 645.008,518.228 641.544,517.874C637.422,517.469 634.527,515.155 632.125,512.033C628.826,507.735 625.109,503.538 621.468,499.555C617.17,494.853 612.657,490.339 608.295,485.7C605.123,482.325 598.713,477.217 598.46,472.186C598.131,465.801 603.972,465.65 608.22,468.418C612.088,470.934 614.768,474.929 617.828,478.216C620.065,480.63 622.328,483.083 624.591,485.498C629.445,490.643 634.553,495.535 639.534,500.567C642.581,503.639 646.183,506.926 647.208,511.313Z" style="fill:rgb(255,188,59);fill-rule:nonzero;"/>
        <path d="M580.18,409.874C581.646,419.077 571.04,418.761 564.327,418.369C566.325,414.375 568.866,410.696 572.279,407.75C575.579,404.893 579.371,404.767 580.18,409.874Z" style="fill:rgb(255,188,59);fill-rule:nonzero;"/>
        <path d="M563.518,532.121C563.518,532.399 562.57,531.982 562.052,531.805C561.065,531.489 560.029,531.109 559.081,530.718C556.818,529.808 555.212,529.1 552.861,528.543C541.951,525.964 531.092,522.058 520.422,518.657L520.119,518.657C520.106,515.611 520.27,512.513 520.068,509.504C519.94,507.57 519.221,505.383 519.145,503.31L519.31,503.297C519.31,504.309 538.942,511.009 540.775,511.565C547.918,513.714 555.187,515.118 561.875,518.505C562.722,518.936 563.847,520.048 564.694,519.757L565.061,519.757C565.035,523.941 564.82,528.113 564.112,532.222L563.518,532.121Z" style="fill:rgb(222,222,222);fill-rule:nonzero;"/>
        <path d="M562.052,531.805C562.57,531.982 563.518,532.399 563.518,532.121L564.112,532.222C563.935,533.296 563.72,534.371 563.467,535.433C562.684,538.657 562.191,541.817 560.547,544.737C560.08,545.572 559.574,546.355 559.03,547.114L558.917,547.038C556.034,545.875 553.088,544.207 550.042,543.208C540.535,540.098 530.94,535.926 521.737,532.02L520.737,532.032C520.7,529.264 520.814,526.47 520.435,523.714C520.206,522.058 520.13,520.364 520.119,518.657L520.422,518.657C531.092,522.058 541.951,525.964 552.861,528.543C555.212,529.1 556.818,529.808 559.081,530.718C560.029,531.109 561.065,531.489 562.052,531.805Z" style="fill:rgb(222,222,222);fill-rule:nonzero;"/>
        <path d="M532.596,498.253L532.457,498.253C531.698,487.292 528.26,476.686 526.591,465.789C524.505,452.11 523.253,437.585 518.474,424.513C517.703,422.427 516.844,420.367 515.846,418.369C516.655,418.318 517.413,418.281 518.083,418.243C520.662,418.116 523.456,417.143 525.896,416.283C528.677,415.297 530.978,413.414 533.14,411.467C535.175,409.659 537.653,407.965 539.157,405.689C539.321,405.437 539.486,405.171 539.65,404.906C543.152,410.063 548.146,414.122 554.29,416.283C556.717,417.143 559.511,418.116 562.102,418.243C562.772,418.281 563.518,418.318 564.327,418.369C563.329,420.367 562.469,422.427 561.71,424.513C556.919,437.585 555.667,452.11 553.582,465.789C552.077,475.649 548.538,485.725 548.461,495.737C548.461,496.66 548.601,497.596 548.613,498.519C543.253,498.557 537.868,498.405 532.596,498.253Z" style="fill:rgb(255,188,59);fill-rule:nonzero;"/>
        <path d="M558.917,547.038L559.03,547.114C557.779,548.872 556.325,550.439 554.605,551.83C550.509,555.154 543.974,555.609 538.967,554.965C532.925,554.168 527.678,550.464 524.442,545.37C522.81,542.791 521.598,539.833 521.104,536.824C520.839,535.243 520.763,533.638 520.737,532.032L521.737,532.02C530.94,535.926 540.535,540.098 550.042,543.208C553.088,544.207 556.034,545.875 558.917,547.038Z" style="fill:rgb(222,222,222);fill-rule:nonzero;"/>
        <path d="M543.304,388.699C543.417,394.198 542.507,400.127 539.65,404.906C537.109,401.164 535.352,396.84 534.518,392.238C533.848,388.572 533.848,381.834 537.741,379.685C541.686,377.523 543.266,386.625 543.304,388.699Z" style="fill:rgb(255,188,59);fill-rule:nonzero;"/>
        <path d="M542.659,258.904C543.923,260.535 542.418,263.367 542.368,265.39C542.305,268.424 542.216,285.174 542.684,288.145C543.102,290.825 542.52,293.177 542.406,295.882C542.254,299.422 542.103,311.444 535.744,310.382C533.86,310.066 532.507,308.208 531.888,306.577C530.498,302.974 530.915,298.562 531.584,294.845C532.204,291.381 532.583,287.209 531.774,283.771C531.003,280.484 531.951,264.113 531.901,260.826C531.863,258.563 532.027,256.035 533.62,254.252C537.64,249.751 542.558,254.176 542.659,258.904Z" style="fill:rgb(255,188,59);fill-rule:nonzero;"/>
        <path d="M532.596,498.253C532.558,498.392 532.621,498.468 532.482,498.607C532.47,498.493 532.47,498.367 532.457,498.253L532.596,498.253Z" style="fill:rgb(140,194,149);fill-rule:nonzero;"/>
        <path d="M522.128,497.975L520.953,498.569L520.662,497.685C519.132,493.563 517.513,490.011 515.086,486.294C509.31,477.432 499.651,473.336 491.775,466.876C472.825,451.352 461.056,426.827 459.792,402.2C457.743,362.366 488.134,324.718 528.98,323.795C546.818,323.391 566.843,327.221 581.343,337.891C595.287,348.131 606.033,362.631 611.216,379.192C616.563,396.221 616.007,414.729 610.002,431.504C606.994,439.924 602.657,447.85 597.234,454.942C591.394,462.578 582.721,467.217 576.754,474.486C571.331,481.073 563.758,487.71 563.012,496.762L562.911,497.722L562.368,497.937C557.854,498.342 553.253,498.493 548.613,498.519C548.601,497.596 548.461,496.66 548.461,495.737C548.538,485.725 552.077,475.649 553.582,465.789C555.667,452.11 556.919,437.585 561.71,424.513C562.469,422.427 563.329,420.367 564.327,418.369C571.04,418.761 581.646,419.077 580.18,409.874C579.371,404.767 575.579,404.893 572.279,407.75C568.866,410.696 566.325,414.375 564.327,418.369C563.518,418.318 562.772,418.281 562.102,418.243C559.511,418.116 556.717,417.143 554.29,416.283C548.146,414.122 543.152,410.063 539.65,404.906C542.507,400.127 543.417,394.198 543.304,388.699C543.266,386.625 541.686,377.523 537.741,379.685C533.848,381.834 533.848,388.572 534.518,392.238C535.352,396.84 537.109,401.164 539.65,404.906C539.486,405.171 539.321,405.437 539.157,405.689C537.653,407.965 535.175,409.659 533.14,411.467C530.978,413.414 528.677,415.297 525.896,416.283C523.456,417.143 520.662,418.116 518.083,418.243C517.413,418.281 516.655,418.318 515.846,418.369C513.848,414.375 511.307,410.696 507.894,407.75C504.594,404.893 500.814,404.767 499.993,409.874C498.526,419.077 509.133,418.761 515.846,418.369C516.844,420.367 517.703,422.427 518.474,424.513C523.253,437.585 524.505,452.11 526.591,465.789C528.26,476.686 531.698,487.292 532.457,498.253C528.955,498.152 525.504,498.038 522.128,497.975Z" style="fill:rgb(255,188,59);fill-rule:nonzero;"/>
        <path d="M519.31,503.297L519.145,503.31C519.068,501.578 519.435,499.922 520.953,498.569L522.128,497.975C525.504,498.038 528.955,498.152 532.457,498.253C532.47,498.367 532.47,498.493 532.482,498.607C532.621,498.468 532.558,498.392 532.596,498.253C537.868,498.405 543.253,498.557 548.613,498.519C553.253,498.493 557.854,498.342 562.368,497.937L562.911,497.722C564.984,499.05 565.085,502.083 565.085,504.283C565.098,507.28 564.921,510.238 564.984,513.259C565.035,515.421 565.073,517.595 565.061,519.757L564.694,519.757C563.847,520.048 562.722,518.936 561.875,518.505C555.187,515.118 547.918,513.714 540.775,511.565C538.942,511.009 519.31,504.309 519.31,503.297Z" style="fill:rgb(222,222,222);fill-rule:nonzero;"/>
        <path d="M507.894,407.75C511.307,410.696 513.848,414.375 515.846,418.369C509.133,418.761 498.526,419.077 499.993,409.874C500.814,404.767 504.594,404.893 507.894,407.75Z" style="fill:rgb(255,188,59);fill-rule:nonzero;"/>
        <path d="M465.278,468.418C469.538,465.65 475.366,465.801 475.05,472.186C474.797,477.217 468.388,482.325 465.215,485.7C460.841,490.339 456.34,494.853 452.029,499.555C448.401,503.538 444.672,507.735 441.372,512.033C438.97,515.155 436.075,517.469 431.967,517.874C428.503,518.228 425.456,514.916 426.291,511.313C427.314,506.926 430.93,503.639 433.977,500.567C438.958,495.535 444.065,490.643 448.919,485.498C451.182,483.083 453.445,480.63 455.683,478.216C458.729,474.929 461.422,470.934 465.278,468.418Z" style="fill:rgb(255,188,59);fill-rule:nonzero;"/>
        <path d="M456.302,334.516C459.804,338.194 460.702,343.959 454.38,344.806C449.387,345.463 443.192,340.104 439.299,337.6C433.938,334.149 428.68,330.546 423.269,327.17C418.692,324.313 413.889,321.418 409.06,318.966C405.545,317.171 402.751,314.744 401.588,310.774C400.627,307.437 403.32,303.846 407.012,304.011C411.512,304.213 415.406,307.159 418.983,309.599C424.836,313.581 430.576,317.702 436.53,321.532C439.312,323.328 442.143,325.097 444.912,326.854C448.705,329.269 453.117,331.178 456.302,334.516Z" style="fill:rgb(255,188,59);fill-rule:nonzero;"/>
        <path d="M439.956,399.128C444.937,400.165 448.97,404.375 444.242,408.686C440.525,412.074 432.384,411.201 427.757,411.366C421.385,411.581 415.001,411.618 408.63,411.935C403.244,412.2 397.656,412.554 392.284,413.287C388.377,413.818 384.686,413.426 381.475,410.822C378.782,408.635 378.946,404.134 382.069,402.175C385.887,399.76 390.767,399.975 395.103,399.938C402.17,399.874 409.249,399.988 416.316,399.748C419.628,399.634 422.953,399.47 426.24,399.343C430.728,399.153 435.443,398.206 439.956,399.128Z" style="fill:rgb(255,188,59);fill-rule:nonzero;"/>
        <path d="M1015.72,786.244L1015.74,785.592C1044.94,784.626 1079.04,767.643 1104.14,748.109L1104.66,748.772C1103.6,757.213 1104.1,766.486 1103.47,774.061C1102.23,788.908 1101.45,804.261 1102.58,819.221C1085.24,820.266 1068.46,824.717 1050.51,823.278C1030.46,821.671 1009.06,816.489 990.327,809.195C973.828,802.777 959.16,792.134 945.122,781.535C935.535,774.297 928.005,765.676 919.8,757.033C918.339,755.494 916.799,753.448 915.169,751.369C924.7,756.719 934.411,761.799 944.279,766.969C956.384,773.308 969.332,777.511 982.538,781.108C993.182,784.019 1004.81,785.93 1015.72,786.244Z" style="fill:rgb(227,148,118);fill-rule:nonzero;"/>
        <path d="M889.6,1535.33C899.581,1543.13 895.388,1555.89 888.409,1564.16C881.497,1572.38 865.975,1565.33 862.289,1557.09C857.624,1546.66 863.761,1532.73 875.888,1531.88C881.474,1531.49 884.924,1531.69 889.6,1535.33Z" style="fill:rgb(55,98,143);fill-rule:nonzero;"/>
        <path d="M1606.49,1874.3L1132.48,1874.3C1132.85,1833.76 1133.38,1792.93 1129.77,1752.74C1126.74,1718.94 1124.92,1684.99 1125.83,1651.05C1126.58,1623.17 1124.37,1594.9 1125.31,1566.82C1126.36,1535.4 1133.11,1504.16 1134.4,1472.61C1135.37,1449.08 1139.42,1426.32 1144.4,1403.32C1150.11,1376.93 1149.75,1349.74 1156.96,1323.42C1164.26,1296.84 1171.99,1270.41 1177.26,1243.19C1182.06,1218.43 1185.01,1193.46 1190.08,1168.82C1201.59,1112.97 1201.87,1056.46 1192.75,1000.2C1190.09,983.775 1188.95,967.445 1184.88,951.215C1176.91,919.464 1162.43,888.5 1137.63,866.426C1128.46,858.266 1115.9,854.321 1106.95,846.734C1106.11,842.295 1105.14,837.878 1104.33,833.382C1104.26,833.045 1104.2,832.696 1104.15,832.359C1114.53,831.19 1126.27,838.35 1135.55,842.037C1157.67,850.837 1180.33,858.232 1202.38,867.246C1212.53,871.394 1222.83,875.754 1232.76,880.194C1242.45,884.532 1250.19,892.107 1259.92,896.468C1270.8,901.346 1281.71,906.168 1292.75,910.697C1316.25,920.341 1339.99,929.636 1362.01,942.415C1391.23,959.364 1418.7,976.313 1441.97,1001.44C1463.71,1024.93 1481,1055.93 1496.03,1084C1512.69,1115.06 1525.25,1149.79 1536.51,1183.13C1539.23,1191.21 1543.23,1199.35 1544.81,1207.72C1547.76,1223.48 1548.83,1239.92 1551.21,1255.86C1553.91,1273.87 1556.35,1291.94 1558.6,1310.02C1563.15,1346.79 1566.85,1383.67 1570.04,1420.58C1574.11,1467.65 1573.6,1515.01 1578.65,1562.01C1583.58,1608.04 1601.54,1649.35 1609.3,1694.52C1614.32,1723.82 1608.47,1753.21 1606.56,1782.5C1605.52,1798.28 1611.33,1813.53 1611.14,1829.23C1610.96,1844.35 1606.91,1859.13 1606.49,1874.3Z" style="fill:rgb(79,149,207);fill-rule:nonzero;"/>
        <path d="M539.641,1031.9C538.056,1024.43 537.089,1016.9 535.685,1009.29C534.201,1001.25 532.392,993.273 530.582,985.304C523.018,952.013 517.32,920.959 527.817,887.601C537.247,857.648 553.6,830.179 560.76,799.462C565.671,778.399 564.502,757.236 563.817,735.769C562.962,709.457 564.333,683.056 564.491,656.745C564.604,638.324 562.445,611.551 580.709,600.368C585.891,597.199 589.038,597.143 594.567,599.638C610.359,606.775 613.326,630.119 614.012,645.067C615.922,686.945 614.349,728.666 614.18,770.577C614.169,772.847 614.596,774.252 614.686,776.32C620.474,776.095 626.251,776.747 631.713,778.399C656.137,785.761 672.737,807.464 687.73,827.065C691.136,812.747 699.082,795.416 714.053,790.38C718.605,788.852 722.505,787.784 727.023,789.437C733.901,791.965 740.218,796.236 743.5,802.968C750.581,817.445 743.264,835.484 740.072,850.039C737.869,860.087 735.183,869.955 735.239,880.418C735.284,891.827 737.184,903.122 737.464,914.519C737.689,923.78 737.644,933.12 736.947,942.404C736.104,953.699 734.295,964.894 730.889,975.728C722.797,1001.46 707.017,1023.67 696.25,1048.22C693.608,1054.25 691.394,1060.39 689.203,1066.5C682.841,1084.19 676.637,1101.43 660.475,1113.81C639.188,1130.15 610.707,1124.78 589.083,1112.09C577.315,1105.19 566.784,1096 558.366,1085.26C553.656,1079.25 552.061,1075.02 550.711,1067.78C548.947,1058.31 544.361,1049.26 541.664,1040.03C540.877,1037.33 540.214,1034.62 539.641,1031.9Z" style="fill:rgb(245,180,155);fill-rule:nonzero;"/>
        <path d="M1073.16,617.475C1078.17,629.815 1067.28,643.696 1059.13,652.081C1045.6,665.983 1027.92,674.042 1008.25,671.502C997.183,670.063 988.371,667.591 978.953,661.398C970.422,655.79 962.375,649.08 956.283,640.841C951.518,634.39 947.752,622.656 953.102,615.418C957.53,609.416 966.027,607.337 973.153,608.079C979.717,608.753 986.46,608.854 993.047,609.326C999.229,609.764 1005.35,609.517 1011.51,609.236C1019.57,608.865 1027.69,609.27 1035.7,608.225C1043.02,607.269 1050.18,604.234 1057.63,605.853C1064.48,607.337 1070.38,610.652 1073.16,617.475Z" style="fill:white;fill-rule:nonzero;"/>
        <path d="M759.92,520.85C758.785,512.881 757.886,504.89 756.942,496.955C755.908,488.29 755.177,479.388 752.491,470.97C747.085,454.055 736.633,439.32 730.878,422.54C728.181,414.661 726.641,407.49 726.753,399.117C726.888,390.024 728.091,380.988 728.877,371.929C730.181,356.778 733.351,341.853 736.891,327.084C741.556,307.64 748.558,287.544 746.456,267.347C746.208,265.009 745.905,262.683 745.613,260.345C743.68,245.104 748.827,233.809 755.796,220.715C766.552,200.473 782.59,181.703 803.158,170.914C825.76,159.056 853.364,155.055 876.978,144.805C887.127,140.399 896.883,135.105 906.189,129.114C910,126.653 912.899,123.483 916.912,121.404C922.958,118.269 929.365,115.717 935.58,113.053C943.032,109.861 950.978,107.366 958.958,105.939C983.325,101.589 1009.7,103.084 1033.45,109.906C1056.75,116.594 1080.95,130.856 1086.71,156.212C1088.2,162.731 1093.08,162.113 1099,162.113C1116.5,158.134 1135.28,162.125 1150.85,170.655C1173.51,183.063 1181.16,204.609 1193.35,225.626C1204.18,244.295 1219.33,259.895 1232.59,276.777C1249.46,298.266 1262.31,322.532 1258.13,350.675C1256.18,363.792 1254.17,376.099 1254.57,389.26C1254.98,402.646 1248.6,417.808 1245.26,430.643C1243.09,438.949 1242.29,447.963 1239.04,455.797C1231.25,474.533 1229.98,494.28 1230.87,514.219C1230.93,515.668 1230.99,517.119 1231.08,518.58C1231.37,523.323 1231.01,529.763 1230.63,534.573C1230.33,538.462 1229.99,542.036 1228.67,545.711C1227.53,548.847 1224.9,553.669 1221.08,554.242C1208.59,556.085 1210.99,519.816 1210.8,513.14C1210.17,491.1 1206.27,466.452 1193.58,447.794C1186.99,438.106 1182.95,425.855 1180.25,414.481C1177.25,401.871 1176.46,389.991 1176.47,377.133C1176.5,357.115 1177.95,336.907 1167.22,318.711C1157.42,302.076 1137.29,294.726 1118.92,293.354C1114.51,293.018 1111.71,293.298 1107.4,293.04C1077.68,291.253 1048.41,293.298 1020.77,304.909C1012.06,308.573 1002.52,310.067 993.103,309.888C968.882,309.449 945.965,299.772 922.509,294.85C910.943,292.411 899.996,291.849 888.33,292.646C876.236,293.479 864.109,294.231 854.061,301.964C845.002,308.933 838.81,318.98 835.303,329.748C832.864,337.199 831.515,344.977 830.729,352.754C829.75,362.521 832.572,371.816 831.762,381.494C830.357,398.353 827.255,414.526 819.096,429.497C816.982,433.397 815.533,437.566 813.746,441.613C812.127,445.266 809.688,447.963 807.508,451.279C802.731,458.55 797.426,465.609 794.11,473.724C786.558,492.235 791.323,512.51 791.593,531.775C791.706,539.653 791.638,548.218 786.457,554.691C781.106,561.368 773.958,559.524 768.856,553.523C763.528,547.285 762.944,539.339 761.595,531.617C760.966,528.032 760.415,524.447 759.92,520.85Z" style="fill:rgb(30,36,74);fill-rule:nonzero;"/>
        <path d="M1104.15,832.359C1104.2,832.696 1104.26,833.045 1104.33,833.382C1103.98,833.168 1103.64,833.213 1103.53,832.438C1103.73,832.404 1103.95,832.382 1104.15,832.359Z" style="fill:rgb(140,194,149);fill-rule:nonzero;"/>
        <path d="M1113.38,492.785C1114.74,499.81 1112.46,507.295 1108.59,513.151C1104.28,519.647 1094.79,520.49 1087.73,518.546C1071.97,514.23 1067.33,495.517 1078.35,483.816C1084.24,477.556 1094.22,473.105 1102.46,477.466C1107.53,480.152 1112.3,487.222 1113.38,492.785Z" style="fill:rgb(43,26,15);fill-rule:nonzero;"/>
        <path d="M900.985,1723.05C910.977,1730.85 906.773,1743.61 899.805,1751.88C892.882,1760.09 877.372,1753.05 873.685,1744.81C869.021,1734.37 875.157,1720.45 887.273,1719.6C892.859,1719.21 896.321,1719.41 900.985,1723.05Z" style="fill:rgb(55,98,143);fill-rule:nonzero;"/>
        <path d="M696.036,1080.4C709.939,1123.47 687.146,1148.35 680.886,1188.65C675.862,1220.91 687.933,1250.09 686.595,1281.6C685.729,1301.93 674.445,1319.34 669.219,1338.53C666.881,1347.13 665.251,1355.89 664.015,1364.71C652.338,1448.8 633.422,1532.46 616.956,1615.88C613.011,1635.86 609.595,1657.45 604.436,1678.56C597.906,1705.33 588.588,1731.33 571.909,1752.3C532.313,1802.08 437.104,1821.4 386.831,1775.53C356.822,1748.14 345.279,1704.55 341.188,1665.53C332.106,1579.02 358.148,1486.36 387.123,1405.85C397.261,1377.68 410.939,1350.94 421.257,1322.84C431.001,1296.27 437.43,1270.08 440.285,1241.9C442.297,1222.07 447.006,1202.65 456.515,1185.02C467.664,1164.33 486.939,1149.47 493.75,1126.33C503.012,1094.88 497.055,1058.42 529.121,1038.12C532.706,1035.85 536.831,1034.71 539.641,1031.9C540.214,1034.62 540.877,1037.33 541.664,1040.03C544.361,1049.26 548.947,1058.31 550.711,1067.78C552.061,1075.02 553.656,1079.25 558.366,1085.26C566.784,1096 577.315,1105.19 589.083,1112.09C610.707,1124.78 639.188,1130.15 660.475,1113.81C676.637,1101.43 682.841,1084.19 689.203,1066.5L689.225,1066.51C694.159,1069.19 694.361,1075.21 696.036,1080.4Z" style="fill:rgb(79,149,207);fill-rule:nonzero;"/>
        <path d="M914.327,834C914.327,833.292 914.349,832.595 914.383,831.898C915.023,817.771 915.271,803.586 914.439,789.459C914.023,782.389 913.337,775.342 912.292,768.351C911.843,765.384 910.887,762.428 910.359,759.607C909.875,756.966 910.606,752.897 908.774,750.717L910.078,748.458C911.764,749.436 913.461,750.402 915.169,751.369C916.799,753.448 918.339,755.494 919.8,757.033C928.005,765.676 935.535,774.297 945.122,781.535C959.16,792.134 973.828,802.777 990.327,809.195C1009.06,816.489 1030.46,821.671 1050.51,823.278C1068.46,824.717 1085.24,820.266 1102.58,819.221C1102.76,821.806 1103.01,824.379 1103.33,826.931C1103.55,828.763 1103.83,830.561 1104.15,832.359C1103.95,832.382 1103.73,832.404 1103.53,832.438C1103.64,833.213 1103.98,833.168 1104.33,833.382C1105.14,837.878 1106.11,842.295 1106.95,846.734C1108.07,852.792 1108.9,858.896 1108.56,865.291C1107.95,877.047 1104.68,888.59 1099.44,899.11C1089.06,919.958 1070.91,937.245 1049.13,945.708C1044.84,947.383 1040.59,949.305 1036.24,950.822C1028.47,953.542 1019.49,954.621 1011.29,954.183C1002.96,953.744 994.137,952.092 986.079,949.945C972.681,946.382 961.498,942.718 950.124,934.368C932.95,921.768 919.654,903.358 914.292,882.633C912.18,874.518 912.045,868.269 913.641,860.312C914.383,856.625 914.585,852.837 914.585,849.016C914.585,844.003 914.237,838.946 914.327,834Z" style="fill:rgb(245,180,155);fill-rule:nonzero;"/>
        <path d="M1132.04,413.863C1135.39,419.314 1132.29,425.169 1126.27,426.058C1120.65,426.9 1115.16,424.45 1109.98,422.652C1107.62,421.82 1105.08,420.842 1102.69,420.258C1099.72,419.527 1096.8,420.46 1093.81,420.371C1085.19,420.101 1077.57,423.417 1069.52,425.979C1067.38,426.653 1064.64,426.9 1062.48,425.664C1055.11,421.416 1060.88,414.211 1065.32,410.255C1068.42,407.49 1071.18,405.793 1075.07,404.321C1080.07,402.433 1085.8,400.364 1091.06,399.555C1095.62,398.847 1100.36,398.521 1104.95,399.027C1114.38,400.061 1126.88,405.501 1132.04,413.863Z" style="fill:rgb(30,36,74);fill-rule:nonzero;"/>
        <path d="M941.56,413.863C944.92,419.314 941.807,425.169 935.782,426.058C930.163,426.9 924.689,424.45 919.508,422.652C917.147,421.82 914.607,420.842 912.213,420.258C909.246,419.527 906.324,420.46 903.323,420.371C894.703,420.101 887.094,423.417 879.035,425.979C876.911,426.653 874.168,426.9 872.01,425.664C864.637,421.416 870.403,414.211 874.843,410.255C877.945,407.49 880.698,405.793 884.598,404.321C889.6,402.433 895.332,400.364 900.581,399.555C905.144,398.847 909.887,398.521 914.461,399.027C923.891,400.061 936.412,405.501 941.56,413.863Z" style="fill:rgb(30,36,74);fill-rule:nonzero;"/>
        <path d="M925.847,492.785C927.207,499.81 924.925,507.295 921.047,513.151C916.743,519.647 907.246,520.49 900.188,518.546C884.441,514.23 879.799,495.517 890.814,483.816C896.714,477.556 906.684,473.105 914.922,477.466C919.991,480.152 924.768,487.222 925.847,492.785Z" style="fill:rgb(43,26,15);fill-rule:nonzero;"/>
        <path d="M921.047,513.151C924.925,507.295 927.207,499.81 925.847,492.785C924.768,487.222 919.991,480.152 914.922,477.466C906.684,473.105 896.714,477.556 890.814,483.816C879.799,495.517 884.441,514.23 900.188,518.546C907.246,520.49 916.743,519.647 921.047,513.151ZM935.782,426.058C941.807,425.169 944.92,419.314 941.56,413.863C936.412,405.501 923.891,400.061 914.461,399.027C909.887,398.521 905.144,398.847 900.581,399.555C895.332,400.364 889.6,402.433 884.598,404.321C880.698,405.793 877.945,407.49 874.843,410.255C870.403,414.211 864.637,421.416 872.01,425.664C874.168,426.9 876.911,426.653 879.035,425.979C887.094,423.417 894.703,420.101 903.323,420.371C906.324,420.46 909.246,419.527 912.213,420.258C914.607,420.842 917.147,421.82 919.508,422.652C924.689,424.45 930.163,426.9 935.782,426.058ZM1059.13,652.081C1067.28,643.696 1078.17,629.815 1073.16,617.475C1070.38,610.652 1064.48,607.337 1057.63,605.853C1050.18,604.234 1043.02,607.269 1035.7,608.225C1027.69,609.27 1019.57,608.865 1011.51,609.236C1005.35,609.517 999.229,609.764 993.047,609.326C986.46,608.854 979.717,608.753 973.153,608.079C966.027,607.337 957.53,609.416 953.102,615.418C947.752,622.656 951.518,634.39 956.283,640.841C962.375,649.08 970.422,655.79 978.953,661.398C988.371,667.591 997.183,670.063 1008.25,671.502C1027.92,674.042 1045.6,665.983 1059.13,652.081ZM1108.59,513.151C1112.46,507.295 1114.74,499.81 1113.38,492.785C1112.3,487.222 1107.53,480.152 1102.46,477.466C1094.22,473.105 1084.24,477.556 1078.35,483.816C1067.33,495.517 1071.97,514.23 1087.73,518.546C1094.79,520.49 1104.28,519.647 1108.59,513.151ZM1126.27,426.058C1132.29,425.169 1135.39,419.314 1132.04,413.863C1126.88,405.501 1114.38,400.061 1104.95,399.027C1100.36,398.521 1095.62,398.847 1091.06,399.555C1085.8,400.364 1080.07,402.433 1075.07,404.321C1071.18,405.793 1068.42,407.49 1065.32,410.255C1060.88,414.211 1055.11,421.416 1062.48,425.664C1064.64,426.9 1067.38,426.653 1069.52,425.979C1077.57,423.417 1085.19,420.101 1093.81,420.371C1096.8,420.46 1099.72,419.527 1102.69,420.258C1105.08,420.842 1107.62,421.82 1109.98,422.652C1115.16,424.45 1120.65,426.9 1126.27,426.058ZM915.169,751.369C913.461,750.402 911.764,749.436 910.078,748.458C900.322,742.86 890.746,736.904 881.361,730.261C862.873,717.167 843.069,702.197 829.425,683.899C821.343,673.076 812.981,662.713 804.529,652.125C797.01,642.707 792.155,631.49 784.872,621.914C777.128,611.709 768.406,610.09 757.65,603.999C746.692,597.783 736.408,589.286 729.046,579.014C726.169,575.012 723.146,572.012 721.134,567.459C718.953,562.537 716.807,557.737 715.435,552.511C712.693,542.059 712.547,530.808 716.739,520.704C720.189,512.398 728.731,506.138 737.678,505.239C749.614,504.047 753.716,512.69 759.92,520.85C760.415,524.447 760.966,528.032 761.595,531.617C762.944,539.339 763.528,547.285 768.856,553.523C773.958,559.524 781.106,561.368 786.457,554.691C791.638,548.218 791.706,539.653 791.593,531.775C791.323,512.51 786.558,492.235 794.11,473.724C797.426,465.609 802.731,458.55 807.508,451.279C809.688,447.963 812.127,445.266 813.746,441.613C815.533,437.566 816.982,433.397 819.096,429.497C827.255,414.526 830.357,398.353 831.762,381.494C832.572,371.816 829.75,362.521 830.729,352.754C831.515,344.977 832.864,337.199 835.303,329.748C838.81,318.98 845.002,308.933 854.061,301.964C864.109,294.231 876.236,293.479 888.33,292.646C899.996,291.849 910.943,292.411 922.509,294.85C945.965,299.772 968.882,309.449 993.103,309.888C1002.52,310.067 1012.06,308.573 1020.77,304.909C1048.41,293.298 1077.68,291.253 1107.4,293.04C1111.71,293.298 1114.51,293.018 1118.92,293.354C1137.29,294.726 1157.42,302.076 1167.22,318.711C1177.95,336.907 1176.5,357.115 1176.47,377.133C1176.46,389.991 1177.25,401.871 1180.25,414.481C1182.95,425.855 1186.99,438.106 1193.58,447.794C1206.27,466.452 1210.17,491.1 1210.8,513.14C1210.99,519.816 1208.59,556.085 1221.08,554.242C1224.9,553.669 1227.53,548.847 1228.67,545.711C1229.99,542.036 1230.33,538.462 1230.63,534.573C1231.01,529.763 1231.37,523.323 1231.08,518.58C1230.99,517.119 1230.93,515.668 1230.87,514.219L1231.46,514.196C1242.04,498.36 1264.86,506.554 1271.15,521.693C1275.48,532.123 1275.32,543.733 1272.49,554.523C1271.07,559.918 1268.86,564.875 1266.61,569.955C1264.53,574.664 1261.41,577.755 1258.45,581.891C1250.84,592.489 1240.22,601.268 1228.9,607.674C1220.56,612.406 1211.75,616.216 1203.21,620.554L1202.6,620.284C1191.78,644.988 1178.42,670.592 1161.84,690.598C1148.87,706.265 1133.05,721.719 1118.37,735.847C1114.08,739.961 1109.31,744.085 1104.14,748.109C1079.04,767.643 1044.94,784.626 1015.74,785.592L1015.72,786.244C1004.81,785.93 993.182,784.019 982.538,781.108C969.332,777.511 956.384,773.308 944.279,766.969C934.411,761.799 924.7,756.719 915.169,751.369Z" style="fill:rgb(245,180,155);fill-rule:nonzero;"/>
        <path d="M508.96,360.926C503.811,363.102 498.245,367.227 497.258,371.743C496.725,374.182 497.472,376.783 496.827,379.195C495.75,383.223 491.389,385.227 488.272,387.995C483.021,392.657 481.061,400.672 483.567,407.231C485.569,412.471 490.093,416.774 490.68,422.354C491.178,427.083 488.914,432.65 492.108,436.173C494.817,439.161 499.626,438.474 503.41,439.868C508.275,441.661 511.183,446.833 515.905,448.974C522.75,452.077 530.552,447.912 538.06,447.576C542.61,447.374 547.087,448.607 551.609,449.154C556.13,449.702 561.074,449.447 564.699,446.689C568.671,443.668 570.124,438.423 573.08,434.403C575.985,430.454 580.262,427.792 584.04,424.667C587.816,421.542 591.339,417.482 591.707,412.593C592.207,405.955 586.875,400.41 584.967,394.032C583.718,389.858 583.971,385.403 583.505,381.071C583.069,377.01 581.729,371.67 577.516,370.079C575.222,369.212 572.703,369.174 570.327,368.567C562.798,366.642 557.767,359.415 550.597,356.418C545.988,354.493 540.764,354.458 535.865,355.429C531.249,356.343 526.572,359.343 521.914,359.42C517.297,359.496 513.412,359.045 508.96,360.926Z" style="fill:white;fill-rule:nonzero;"/>
        <path d="M966.964,1808.41C963.42,1797.78 963.671,1787.02 961.789,1775.94C957.265,1749.3 954.287,1722.42 951.913,1695.52C950.78,1682.67 951.47,1668.33 948.6,1655.79C946.325,1645.83 945.65,1636.37 945.051,1626.05C942.171,1576.48 933.595,1527.24 919.632,1479.59C920.204,1483.02 920.747,1486.47 921.239,1489.94C926.668,1528.26 929.472,1566.89 931.289,1605.54C931.364,1607.13 931.44,1608.72 931.511,1610.31C932.411,1630.21 933.063,1650.11 933.692,1670C934.939,1709.14 936.019,1747.57 935.883,1786.81C935.793,1815.99 934.726,1845.16 933.31,1874.3L975.91,1874.3C975.255,1865.53 974.061,1856.75 972.853,1848.08C971.083,1835.38 971.021,1820.57 966.964,1808.41Z" style="fill:rgb(237,237,237);fill-rule:nonzero;"/>
        <path d="M1192.75,1000.2C1190.09,983.775 1188.95,967.445 1184.88,951.215C1176.91,919.464 1162.43,888.5 1137.63,866.426C1128.46,858.266 1115.9,854.321 1106.95,846.734C1108.07,852.792 1108.9,858.896 1108.56,865.291C1107.95,877.047 1104.68,888.59 1099.44,899.11C1089.06,919.959 1070.91,937.245 1049.13,945.708C1044.84,947.383 1040.59,949.305 1036.24,950.822C1028.47,953.542 1019.49,954.621 1011.29,954.183C1002.96,953.744 994.137,952.092 986.078,949.945C972.681,946.382 961.498,942.718 950.124,934.368C932.95,921.768 919.654,903.358 914.292,882.633C912.18,874.518 912.045,868.269 913.641,860.312C914.383,856.625 914.585,852.837 914.585,849.016C911.955,851.713 906.29,854.883 903.098,857.76C882.935,875.968 872.718,907.067 863.513,931.872C846.564,977.504 843.069,1026.24 842.653,1074.51C842.237,1123.76 845.306,1172.79 853.027,1221.55C857.163,1247.7 862.581,1273.65 869.481,1299.21C885.986,1360.35 909.2,1416.96 919.632,1479.59C933.595,1527.24 942.171,1576.48 945.051,1626.05C945.65,1636.37 946.325,1645.83 948.6,1655.79C951.47,1668.33 950.78,1682.67 951.913,1695.52C954.287,1722.42 957.265,1749.3 961.789,1775.94C963.671,1787.02 963.42,1797.78 966.964,1808.41C971.021,1820.57 971.083,1835.38 972.853,1848.08C974.061,1856.75 975.255,1865.53 975.91,1874.3L1132.48,1874.3C1132.85,1833.76 1133.38,1792.93 1129.77,1752.74C1126.74,1718.94 1124.92,1684.99 1125.83,1651.05C1126.58,1623.17 1124.37,1594.9 1125.31,1566.82C1126.36,1535.4 1133.11,1504.16 1134.4,1472.61C1135.37,1449.08 1139.42,1426.32 1144.4,1403.32C1150.11,1376.93 1149.75,1349.74 1156.96,1323.42C1164.26,1296.84 1171.99,1270.41 1177.26,1243.19C1182.06,1218.43 1185.01,1193.46 1190.08,1168.82C1201.59,1112.97 1201.87,1056.46 1192.75,1000.2Z" style="fill:rgb(255,251,242);fill-rule:nonzero;"/>
        <path d="M1039.15,281.674C1038.44,281.674 1037.73,281.404 1037.18,280.864C1036.08,279.774 1036.06,277.995 1037.15,276.891C1057.6,256.174 1067.01,228.933 1073.53,205.018C1073.94,203.52 1075.49,202.638 1076.98,203.045C1078.47,203.453 1079.36,204.997 1078.95,206.494C1067,250.365 1053.14,268.694 1041.15,280.838C1040.6,281.395 1039.88,281.674 1039.15,281.674Z" style="fill-rule:nonzero;"/>
        <path d="M1084.3,282.755C1083.14,282.755 1082.05,282.03 1081.64,280.873C1081.13,279.408 1081.9,277.805 1083.37,277.292C1098.3,272.065 1111.7,264.296 1123.21,254.201C1124.38,253.178 1126.15,253.293 1127.17,254.46C1128.2,255.626 1128.08,257.402 1126.92,258.425C1114.86,268.998 1100.84,277.13 1085.23,282.596C1084.92,282.704 1084.6,282.755 1084.3,282.755Z" style="fill-rule:nonzero;"/>
        <path d="M955.321,255.53C954.026,255.53 952.861,254.63 952.577,253.313C946.263,224.062 929.86,201.933 907.575,192.599C906.143,191.999 905.469,190.353 906.068,188.921C906.668,187.49 908.317,186.818 909.746,187.415C933.75,197.47 951.363,221.056 958.07,252.127C958.398,253.644 957.434,255.139 955.917,255.466C955.717,255.509 955.518,255.53 955.321,255.53Z" style="fill-rule:nonzero;"/>
        <path d="M860.724,254.196C860.261,254.196 859.793,254.082 859.36,253.841C842.399,244.407 826.126,240.701 811,242.829C809.458,243.046 808.043,241.974 807.827,240.437C807.611,238.9 808.682,237.479 810.218,237.263C826.585,234.965 844.039,238.887 862.092,248.93C863.448,249.684 863.936,251.395 863.182,252.751C862.668,253.675 861.71,254.196 860.724,254.196Z" style="fill-rule:nonzero;"/>
        <path d="M1016.62,571.293C1013.66,571.293 1010.53,570.58 1007.28,569.162C1001.72,566.727 997.624,564.134 994.391,560.999C993.277,559.919 993.25,558.14 994.33,557.026C995.41,555.912 997.189,555.884 998.303,556.965C1001.04,559.617 1004.61,561.857 1009.53,564.013C1012.81,565.445 1015.83,565.956 1018.51,565.527C1020.55,565.201 1022.62,564.559 1024.65,563.616C1027.32,562.386 1035.4,558.649 1030.09,541.198C1028.33,535.436 1026.26,529.652 1024.26,524.058C1022.43,518.947 1020.54,513.662 1018.88,508.366C1017.92,505.3 1017.66,502.324 1017.41,499.447C1017.29,498.067 1017.18,496.765 1016.99,495.44C1015.55,485.2 1016.45,474.638 1017.63,464.75C1017.81,463.209 1019.21,462.106 1020.75,462.293C1022.29,462.478 1023.39,463.875 1023.21,465.416C1022.07,474.928 1021.21,485.054 1022.56,494.659C1022.76,496.131 1022.89,497.571 1023.01,498.962C1023.24,501.657 1023.46,504.203 1024.24,506.682C1025.87,511.873 1027.74,517.104 1029.55,522.164C1031.58,527.821 1033.67,533.67 1035.47,539.561C1041.04,557.856 1033.94,565.513 1027.01,568.716C1024.52,569.874 1021.95,570.669 1019.39,571.077C1018.48,571.221 1017.56,571.293 1016.62,571.293Z" style="fill:rgb(171,104,77);fill-rule:nonzero;"/>
        <path d="M768.416,588.457C767.386,588.457 766.395,587.889 765.902,586.906C764.45,584.01 761.687,582.142 758.762,580.164C755.368,577.87 751.522,575.27 749.704,570.713C747.825,566.008 749.116,561.852 750.254,558.186C750.748,556.598 751.213,555.098 751.433,553.593C751.651,552.1 751.159,550.75 750.536,549.041C750.238,548.223 749.929,547.376 749.672,546.437C748.85,543.43 748.113,541.641 746.37,540.212C741.894,536.542 737.89,534.731 735.105,535.107C733.636,535.307 732.402,536.14 731.333,537.655C730.44,538.923 728.687,539.227 727.417,538.331C726.149,537.437 725.847,535.684 726.741,534.416C728.731,531.595 731.291,529.954 734.35,529.539C738.832,528.936 744.07,531.06 749.934,535.867C753.114,538.474 754.226,541.786 755.093,544.955C755.288,545.669 755.544,546.372 755.816,547.116C756.566,549.175 757.417,551.508 756.994,554.406C756.71,556.345 756.157,558.128 755.621,559.853C754.594,563.161 753.783,565.773 754.923,568.63C756.101,571.582 758.792,573.402 761.909,575.509C765.146,577.697 768.815,580.178 770.925,584.387C771.621,585.774 771.06,587.463 769.673,588.158C769.269,588.361 768.839,588.457 768.416,588.457Z" style="fill:rgb(171,104,77);fill-rule:nonzero;"/>
        <path d="M1222.46,591.803C1222.04,591.803 1221.61,591.707 1221.21,591.504C1219.82,590.809 1219.26,589.121 1219.95,587.733C1222.12,583.409 1225.9,580.855 1229.23,578.602C1232.46,576.418 1235.25,574.533 1236.48,571.459C1237.67,568.48 1236.78,565.633 1235.76,562.337C1235.21,560.56 1234.63,558.722 1234.34,556.727C1233.91,553.76 1234.78,551.363 1235.55,549.249C1235.83,548.478 1236.1,547.75 1236.3,547.008C1237.19,543.751 1238.34,540.348 1241.6,537.673C1247.63,532.727 1253.02,530.533 1257.62,531.16C1260.75,531.584 1263.37,533.266 1265.41,536.157C1266.3,537.425 1266,539.179 1264.73,540.073C1263.47,540.966 1261.71,540.666 1260.82,539.396C1259.7,537.81 1258.41,536.937 1256.86,536.728C1253.96,536.339 1249.8,538.213 1245.16,542.018C1243.34,543.509 1242.58,545.368 1241.72,548.491C1241.46,549.456 1241.14,550.33 1240.83,551.173C1240.19,552.949 1239.68,554.352 1239.9,555.915C1240.13,557.475 1240.61,559.027 1241.12,560.67C1242.29,564.44 1243.62,568.714 1241.7,573.542C1239.83,578.221 1236.04,580.782 1232.38,583.258C1229.35,585.306 1226.49,587.241 1224.98,590.252C1224.48,591.235 1223.49,591.803 1222.46,591.803Z" style="fill:rgb(171,104,77);fill-rule:nonzero;"/>
        <path d="M678.33,918.17C677.685,918.17 677.199,918.028 676.775,917.879C676.61,917.822 676.589,917.814 676.443,917.803C674.896,917.681 673.741,916.328 673.862,914.781C673.984,913.234 675.338,912.081 676.884,912.201C677.567,912.254 678.043,912.38 678.43,912.507C678.699,912.447 678.976,912.426 679.25,912.445C686.708,913.005 693.203,903.702 695.549,897.727C699.448,887.795 700.539,876.291 698.791,863.534C697.313,852.741 695.378,841.568 689.513,833.986C688.413,832.564 687.308,831.123 686.194,829.669C685.251,828.437 685.485,826.673 686.717,825.73C687.949,824.787 689.712,825.02 690.656,826.252C691.764,827.7 692.864,829.133 693.958,830.547C700.671,839.226 702.777,851.225 704.358,862.771C706.238,876.492 705.034,888.943 700.78,899.781C699.025,904.248 696.128,908.688 692.831,911.962C688.605,916.158 683.925,918.259 679.283,918.075C678.929,918.143 678.614,918.17 678.33,918.17Z" style="fill:rgb(171,104,77);fill-rule:nonzero;"/>
        <path d="M580.95,791.044C580.097,791.044 579.254,790.658 578.702,789.923C577.77,788.683 578.019,786.922 579.259,785.989C588.455,779.072 599.967,774.704 611.675,773.688C613.214,773.549 614.583,774.699 614.717,776.245C614.852,777.79 613.707,779.152 612.161,779.287C601.487,780.212 591.002,784.187 582.637,790.48C582.131,790.86 581.538,791.044 580.95,791.044Z" style="fill:rgb(171,104,77);fill-rule:nonzero;"/>
        <path d="M638.162,960.871C634.35,960.872 630.779,959.852 628.222,957.114C628.044,956.934 627.355,956.614 626.899,956.403C625.377,955.699 622.831,954.519 622.582,951.579C622.45,950.033 623.597,948.673 625.144,948.541C626.574,948.429 627.824,949.377 628.124,950.729C628.395,950.903 628.902,951.138 629.261,951.304C630.271,951.772 631.417,952.303 632.328,953.277C636.543,957.789 648.428,953.693 653.617,950.231C668.124,940.551 678.603,916.524 669.451,891.061C668.356,888.015 666.219,885.009 664.152,882.102C663.343,880.963 662.506,879.786 661.736,878.614C649.524,860.008 637.46,849.326 625.879,846.862C613.444,844.216 599.552,846.323 592.377,847.813C590.859,848.126 589.37,847.153 589.055,845.634C588.739,844.114 589.715,842.626 591.234,842.311C598.84,840.73 613.606,838.507 627.048,841.365C640.313,844.187 653.197,855.362 666.435,875.53C667.146,876.615 667.917,877.699 668.732,878.846C671.019,882.062 673.384,885.388 674.739,889.161C682.291,910.169 678.547,940.352 656.736,954.906C652.919,957.452 645.14,960.871 638.162,960.871Z" style="fill:rgb(171,104,77);fill-rule:nonzero;"/>
        <path d="M600.4,990.71C595.297,990.71 590.458,988.321 586.921,983.7C584.05,979.949 582.155,975.265 581.852,971.17C581.721,969.4 581.882,967.629 582.038,965.916C582.279,963.265 582.507,960.761 581.602,958.811C579.33,953.915 575.149,950.536 570.722,946.958L569.251,945.766C568.049,944.784 567.871,943.014 568.853,941.812C569.833,940.61 571.604,940.431 572.806,941.413L574.254,942.587C578.985,946.411 583.878,950.366 586.7,956.446C588.241,959.766 587.919,963.303 587.635,966.425C587.494,967.979 587.36,969.448 587.457,970.755C587.679,973.758 589.184,977.41 591.384,980.284C595.536,985.71 601.799,986.624 607.726,982.674C618.037,975.801 622.198,961.414 622.655,950.243C622.889,944.505 622.008,938.336 620.035,931.909C617.973,925.191 612.461,919.605 607.13,914.203L605.849,912.902C599.596,906.526 592.687,901.896 585.313,899.14C583.86,898.597 583.122,896.978 583.666,895.524C584.208,894.071 585.828,893.332 587.281,893.876C595.43,896.923 603.027,901.999 609.861,908.966L611.13,910.255C616.667,915.866 622.941,922.225 625.407,930.26C627.567,937.297 628.53,944.097 628.27,950.472C627.605,966.733 621.091,980.519 610.843,987.35C607.458,989.607 603.868,990.71 600.4,990.71Z" style="fill:rgb(171,104,77);fill-rule:nonzero;"/>
        <path d="M634.151,996.462C633.881,996.462 633.606,996.423 633.334,996.34C631.849,995.89 631.011,994.321 631.461,992.836C635.577,979.268 640.466,969.138 647.314,959.992C648.538,958.358 649.644,956.851 650.731,955.368C652.323,953.198 653.827,951.149 655.618,948.806C656.561,947.573 658.324,947.338 659.557,948.28C660.79,949.223 661.025,950.986 660.083,952.219C658.325,954.518 656.837,956.545 655.262,958.692C654.164,960.189 653.047,961.71 651.813,963.36C645.374,971.959 640.756,981.553 636.839,994.467C636.471,995.68 635.356,996.462 634.151,996.462Z" style="fill:rgb(171,104,77);fill-rule:nonzero;"/>
        <path d="M604.954,1679.25C604.738,1679.25 604.519,1679.23 604.3,1679.18C602.791,1678.82 601.858,1677.3 602.218,1675.79C605.513,1661.97 608.108,1647.92 610.617,1634.33C611.833,1627.75 612.98,1621.54 614.205,1615.33C618.278,1594.69 622.572,1573.68 626.725,1553.37C639.374,1491.5 652.453,1427.53 661.238,1364.32C662.602,1354.51 664.327,1345.83 666.513,1337.79C668.482,1330.55 671.312,1323.52 674.047,1316.72C678.787,1304.95 683.263,1293.82 683.787,1281.48C684.362,1267.91 682.348,1254.42 680.4,1241.38C677.856,1224.35 675.226,1206.73 678.105,1188.22C680.249,1174.42 684.256,1162.53 688.131,1151.02C695.736,1128.45 702.304,1108.95 693.363,1081.27C692.943,1079.97 692.618,1078.65 692.302,1077.38C691.378,1073.66 690.581,1070.44 687.876,1068.97C686.514,1068.23 686.01,1066.52 686.752,1065.16C687.494,1063.8 689.202,1063.29 690.564,1064.04C695.439,1066.69 696.67,1071.65 697.756,1076.03C698.062,1077.26 698.351,1078.43 698.71,1079.54C708.222,1108.99 701.05,1130.28 693.457,1152.82C689.657,1164.1 685.729,1175.76 683.658,1189.08C680.91,1206.75 683.476,1223.93 685.958,1240.55C687.945,1253.86 689.999,1267.61 689.401,1281.72C688.837,1295.03 683.969,1307.12 679.261,1318.82C676.585,1325.47 673.819,1332.34 671.936,1339.27C669.813,1347.07 668.135,1355.52 666.804,1365.1C657.995,1428.48 644.897,1492.54 632.231,1554.5C628.08,1574.8 623.788,1595.8 619.719,1616.42C618.5,1622.59 617.355,1628.79 616.144,1635.35C613.621,1649.01 611.013,1663.14 607.685,1677.09C607.377,1678.38 606.225,1679.25 604.954,1679.25Z" style="fill:rgb(46,83,120);fill-rule:nonzero;"/>
        <path d="M599.887,1255.57C599.167,1255.57 598.446,1255.29 597.897,1254.74C573.985,1230.74 552.666,1204.23 528.013,1171.8C527.074,1170.56 527.314,1168.8 528.549,1167.86C529.785,1166.92 531.548,1167.16 532.487,1168.4C557.003,1200.65 578.186,1227 601.877,1250.77C602.973,1251.87 602.97,1253.65 601.871,1254.75C601.322,1255.29 600.604,1255.57 599.887,1255.57Z" style="fill:rgb(46,83,120);fill-rule:nonzero;"/>
        <path d="M554.423,1319.2C541.209,1319.2 527.189,1316.72 511.596,1311.69C510.119,1311.21 509.308,1309.63 509.784,1308.15C510.261,1306.67 511.846,1305.86 513.32,1306.34C537.088,1314.01 556.946,1315.54 575.815,1311.15C577.327,1310.8 578.836,1311.74 579.188,1313.25C579.539,1314.77 578.598,1316.28 577.086,1316.63C569.709,1318.34 562.206,1319.2 554.423,1319.2Z" style="fill:rgb(46,83,120);fill-rule:nonzero;"/>
        <path d="M1397.06,1878.13L1397.04,1878.13C1395.48,1878.12 1394.24,1876.85 1394.25,1875.3C1394.43,1855.99 1392.73,1836.06 1391.09,1816.79C1389.66,1800.05 1388.19,1782.74 1387.95,1765.93C1387.51,1734.97 1385.95,1703.48 1384.43,1673.03C1383.89,1662.06 1383.32,1650.72 1382.82,1639.56C1379.84,1573.53 1375.33,1510.73 1369.03,1447.56C1362.39,1380.98 1356.76,1315.85 1360.79,1251.02C1363.7,1204.1 1374.04,1154.03 1392.38,1097.93C1392.86,1096.46 1394.45,1095.66 1395.92,1096.14C1397.4,1096.62 1398.2,1098.21 1397.72,1099.68C1379.53,1155.32 1369.28,1204.93 1366.4,1251.36C1362.4,1315.78 1368,1380.66 1374.62,1447C1380.93,1510.27 1385.45,1573.17 1388.43,1639.31C1388.94,1650.45 1389.5,1661.79 1390.05,1672.75C1391.56,1703.25 1393.13,1734.79 1393.57,1765.85C1393.81,1782.46 1395.27,1799.67 1396.69,1816.31C1398.34,1835.72 1400.05,1855.78 1399.87,1875.35C1399.86,1876.89 1398.6,1878.13 1397.06,1878.13Z" style="fill:rgb(46,83,120);fill-rule:nonzero;"/>
        <path d="M1482.86,1769.58C1482.06,1769.58 1481.27,1769.24 1480.71,1768.58C1479.71,1767.4 1479.86,1765.62 1481.05,1764.62C1510.82,1739.54 1531.67,1714.5 1543.04,1690.2C1543.7,1688.8 1545.37,1688.19 1546.77,1688.85C1548.18,1689.51 1548.79,1691.18 1548.13,1692.59C1536.42,1717.62 1515.07,1743.31 1484.67,1768.92C1484.14,1769.37 1483.5,1769.58 1482.86,1769.58Z" style="fill:rgb(46,83,120);fill-rule:nonzero;"/>
        <path d="M558.909,550.203C558.516,550.203 558.117,550.129 557.729,549.973C556.492,549.475 555.262,548.896 554.072,548.337C552.338,547.522 550.702,546.753 549.056,546.213C540.27,543.33 531.468,539.592 522.956,535.977L520.498,534.933C518.891,534.252 518.14,532.397 518.82,530.789C519.502,529.183 521.354,528.433 522.964,529.113L525.428,530.159C533.818,533.723 542.495,537.408 551.027,540.207C553.04,540.868 554.931,541.757 556.76,542.617C557.922,543.163 559.019,543.678 560.091,544.11C561.71,544.762 562.494,546.603 561.842,548.222C561.346,549.454 560.161,550.203 558.909,550.203Z" style="fill:rgb(161,144,134);fill-rule:nonzero;"/>
        <path d="M560.521,533.095C560.521,533.097 560.521,533.098 560.522,533.099C560.521,533.098 560.521,533.097 560.521,533.095ZM563.435,535.368C562.586,535.368 561.813,535.084 561.321,534.904L561.059,534.81C559.834,534.402 558.795,534.022 557.881,533.649L557.166,533.356C555.322,532.599 553.99,532.052 552.133,531.615C543.782,529.646 535.438,526.898 527.368,524.241C524.721,523.37 522.084,522.501 519.458,521.663C517.794,521.133 516.877,519.355 517.408,517.692C517.938,516.028 519.716,515.113 521.379,515.641C524.023,516.485 526.68,517.359 529.345,518.237C537.287,520.852 545.5,523.557 553.583,525.462C555.927,526.015 557.614,526.707 559.567,527.509L560.269,527.797C561.054,528.117 561.965,528.449 563.056,528.812C563.138,528.84 563.229,528.872 563.326,528.907C564.695,528.833 566.02,529.66 566.494,531.027C566.916,532.243 566.616,533.549 565.713,534.437C564.991,535.146 564.184,535.368 563.435,535.368Z" style="fill:rgb(161,144,134);fill-rule:nonzero;"/>
        <path d="M564.404,522.964C562.896,522.964 561.647,522.122 560.901,521.62C560.74,521.511 560.589,521.4 560.446,521.325C555.855,518.996 550.942,517.66 545.741,516.246C543.819,515.724 541.832,515.183 539.864,514.589C538.485,514.172 525.703,509.839 520.273,507.469C518.672,506.771 517.942,504.908 518.641,503.309C519.339,501.709 521.203,500.978 522.801,501.676C527.911,503.906 540.409,508.15 541.692,508.538C543.575,509.107 545.519,509.635 547.399,510.146C552.678,511.582 558.137,513.066 563.308,515.688C563.727,515.901 564.103,516.155 564.435,516.378C564.529,516.442 564.648,516.522 564.757,516.593C566.047,516.618 567.243,517.438 567.685,518.73C568.25,520.382 567.369,522.179 565.718,522.744C565.263,522.899 564.824,522.964 564.404,522.964Z" style="fill:rgb(161,144,134);fill-rule:nonzero;"/>
        <path d="M538.694,386.16C537.355,387.724 537.032,391.67 537.625,394.891C537.994,396.917 538.546,398.857 539.266,400.692C540.031,397.592 540.197,394.484 540.145,391.992C540.117,390.559 539.428,387.553 538.694,386.16ZM503.558,412.161C503.573,412.182 503.286,412.526 503.115,413.6C502.769,415.768 503.435,416.502 503.653,416.743C504.837,418.049 507.591,418.477 510.432,418.561C509.042,416.532 507.52,414.816 505.833,413.359C504.694,412.377 503.814,412.128 503.558,412.161ZM576.544,412.124C576.383,412.124 575.49,412.37 574.34,413.361C572.654,414.817 571.133,416.533 569.743,418.561C572.584,418.477 575.338,418.049 576.522,416.743C576.741,416.502 577.407,415.768 577.061,413.6C576.875,412.432 576.551,412.126 576.548,412.124L576.544,412.124ZM548.467,502.115L548.443,502.115C546.698,502.102 545.293,500.677 545.306,498.932C545.354,492.233 546.854,485.599 548.305,479.184C549.138,475.502 549.924,472.024 550.457,468.536C550.883,465.749 551.273,462.928 551.667,460.091C553.214,448.916 554.814,437.36 558.738,426.647C559.027,425.857 559.323,425.09 559.625,424.344C557.347,423.928 555.12,423.146 553.237,422.485C547.885,420.606 543.246,417.423 539.594,413.27C538.684,414.165 537.722,414.963 536.823,415.709C536.286,416.155 535.753,416.596 535.25,417.045C533.002,419.054 530.32,421.297 526.939,422.485C525.056,423.146 522.828,423.928 520.55,424.344C520.853,425.09 521.148,425.858 521.438,426.648C525.361,437.36 526.961,448.916 528.509,460.091C528.902,462.928 529.292,465.749 529.718,468.535C530.368,472.79 531.322,477.123 532.245,481.312C533.478,486.915 534.754,492.708 535.375,498.573C535.558,500.309 534.3,501.865 532.564,502.049C530.83,502.229 529.272,500.974 529.088,499.238C528.505,493.724 527.268,488.105 526.071,482.671C525.127,478.383 524.151,473.949 523.469,469.49C523.039,466.675 522.645,463.824 522.248,460.958C520.745,450.113 519.192,438.898 515.5,428.821C514.987,427.416 514.455,426.097 513.9,424.857C508.735,425.061 502.413,424.786 498.97,420.989C497.638,419.519 496.192,416.871 496.873,412.604C497.57,408.233 500.006,406.728 501.397,406.22C504,405.267 507.124,406.125 509.963,408.574C512.96,411.163 515.497,414.345 517.701,418.32C517.775,418.316 517.849,418.313 517.921,418.309C520.055,418.203 522.599,417.31 524.845,416.521C527.134,415.717 529.16,414.011 531.039,412.332C531.598,411.833 532.189,411.34 532.787,410.845C533.918,409.906 535.001,409.007 535.831,408.061C533.718,404.467 532.206,400.412 531.407,396.03C530.387,390.485 531.036,382.993 536.223,380.139C537.952,379.189 539.87,379.183 541.488,380.119C546.006,382.732 546.463,391.774 546.464,391.864C546.557,396.298 546.042,402.401 543.362,407.901C546.449,411.842 550.54,414.839 555.331,416.521C557.576,417.31 560.121,418.203 562.254,418.309C562.327,418.313 562.4,418.316 562.474,418.32C564.678,414.346 567.214,411.164 570.21,408.576C573.052,406.125 576.175,405.266 578.778,406.22C580.169,406.728 582.605,408.233 583.303,412.604C583.983,416.871 582.538,419.519 581.205,420.989C577.763,424.786 571.443,425.063 566.275,424.857C565.721,426.097 565.188,427.416 564.674,428.82C560.983,438.898 559.43,450.113 557.928,460.958C557.531,463.824 557.136,466.675 556.705,469.49C556.139,473.2 555.291,476.95 554.471,480.578C553.094,486.666 551.67,492.961 551.626,498.978C551.614,500.715 550.202,502.115 548.467,502.115Z" style="fill:rgb(168,66,22);fill-rule:nonzero;"/>
        <path d="M880.746,1496.3C879.375,1496.3 878.175,1495.3 877.969,1493.9C873.621,1464.36 865.035,1436.12 857.209,1412.39C854.499,1404.17 851.225,1395.72 848.059,1387.54C841.239,1369.92 834.188,1351.7 831.528,1333.14C831.308,1331.6 832.375,1330.18 833.911,1329.96C835.447,1329.74 836.871,1330.81 837.091,1332.34C839.66,1350.26 846.594,1368.18 853.3,1385.51C856.491,1393.75 859.791,1402.28 862.546,1410.63C870.447,1434.59 879.118,1463.12 883.529,1493.08C883.755,1494.62 882.693,1496.05 881.158,1496.27C881.02,1496.29 880.882,1496.3 880.746,1496.3Z" style="fill:rgb(46,83,120);fill-rule:nonzero;"/>
        <path d="M1408.28,1079.24C1407.92,1079.24 1407.56,1079.17 1407.22,1079.03C1405.78,1078.44 1405.09,1076.8 1405.68,1075.36C1410.24,1064.19 1416.72,1053.99 1422.98,1044.14C1427.22,1037.46 1431.61,1030.56 1435.27,1023.54C1435.98,1022.16 1437.68,1021.63 1439.06,1022.34C1440.43,1023.06 1440.97,1024.75 1440.25,1026.13C1436.48,1033.37 1432.03,1040.38 1427.73,1047.15C1421.59,1056.8 1415.25,1066.78 1410.88,1077.49C1410.43,1078.58 1409.38,1079.24 1408.28,1079.24Z" style="fill:rgb(46,83,120);fill-rule:nonzero;"/>
    </g>
</svg>
